<!-- icon666.com - MILLIONS vector ICONS FREE --><svg id="Layer_1" enable-background="new 0 0 48 48" viewBox="0 0 48 48" xmlns="http://www.w3.org/2000/svg"><g><g><path d="m46.5 32.2h-32.8c-.5 0-.9-.3-1-.8l-4.3-24.4h-6.9c-.6 0-1-.4-1-1s.4-1 1-1h7.7c.5 0 .9.3 1 .8l4.4 24.5h30.9v-11.9h-6.9c-.6 0-1-.4-1-1s.4-1 1-1h7.9c.6 0 1 .4 1 1v13.8c0 .6-.4 1-1 1z" fill="#ffffff"></path></g><g><g><path d="m19.8 43c-2.5 0-4.5-2-4.5-4.5s2-4.5 4.5-4.5 4.5 2 4.5 4.5c.1 2.5-2 4.5-4.5 4.5zm0-7c-1.4 0-2.5 1.1-2.5 2.5s1.1 2.5 2.5 2.5 2.5-1.1 2.5-2.5-1.1-2.5-2.5-2.5z" fill="#ffffff"></path></g><g><path d="m39.4 43c-2.5 0-4.5-2-4.5-4.5s2-4.5 4.5-4.5 4.5 2 4.5 4.5-2 4.5-4.5 4.5zm0-7c-1.4 0-2.5 1.1-2.5 2.5s1.1 2.5 2.5 2.5 2.5-1.1 2.5-2.5-1.1-2.5-2.5-2.5z" fill="#ffffff"></path></g></g></g></svg>